<?xml version="1.0" encoding="UTF-8"?>
<svg id="Capa_1" xmlns="http://www.w3.org/2000/svg" version="1.1" viewBox="0 0 83 80">
  <!-- Generator: Adobe Illustrator 30.8.0, SVG Export Plug-In . SVG Version: 2.1.4 Build 80)  -->
  <path d="M36.49,35.65c-.33-1.05-.66-2.09-.99-3.14-.33-1.05-.63-2.05-.91-3.03-.28-.97-.52-1.86-.74-2.67h-.06c-.31,1.49-.7,2.96-1.16,4.4-.51,1.65-1.04,3.34-1.57,5.06-.53,1.73-1.06,3.32-1.57,4.79h8.7c-.22-.73-.48-1.56-.77-2.48-.29-.92-.61-1.9-.94-2.94Z" fill="#fff"/>
  <path d="M68,0H15C6.98,0,.47,6.51.47,14.53v50.94c0,8.02,6.51,14.53,14.53,14.53h52.99c8.02,0,14.53-6.51,14.53-14.53V14.53c0-8.02-6.51-14.53-14.53-14.53ZM50.75,56.54h-7.16c-.12.01-.25-.02-.35-.09-.1-.07-.17-.18-.2-.3l-2.81-8.15h-12.71l-2.59,8.04c-.04.15-.12.28-.24.37-.12.09-.27.14-.42.13h-6.44c-.37,0-.5-.2-.39-.61l11.01-31.7c.11-.33.22-.71.33-1.13.14-.73.22-1.48.22-2.23,0-.05,0-.11.01-.16.02-.05.04-.1.08-.13s.08-.07.13-.08c.05-.02.1-.02.16-.01h8.75c.26,0,.4.09.44.28l12.49,35.23c.11.37,0,.55-.33.55ZM62.36,55.99c0,.37-.15.55-.44.55h-6.72c-.33,0-.5-.18-.5-.55v-26.31c0-.33.15-.5.44-.5h6.77c.29,0,.44.17.44.5v26.31ZM62.58,23.66c-.2.54-.51,1.03-.91,1.45-.42.41-.91.73-1.46.94-.54.21-1.13.3-1.71.27-.56.02-1.12-.07-1.64-.28-.52-.21-.99-.53-1.38-.93-.39-.42-.69-.91-.89-1.45-.2-.54-.29-1.11-.26-1.68-.02-.57.08-1.13.29-1.66.21-.53.54-1,.95-1.4.41-.39.88-.69,1.41-.9.52-.2,1.08-.3,1.65-.29,1.32,0,2.36.39,3.11,1.18.38.41.67.89.87,1.42.19.52.28,1.08.26,1.64.02.58-.07,1.15-.27,1.69Z" fill="#fff"/>
</svg>