<?xml version="1.0" encoding="UTF-8"?>
<svg id="Capa_1" xmlns="http://www.w3.org/2000/svg" version="1.1" xmlns:xlink="http://www.w3.org/1999/xlink" viewBox="0 0 256 256">
  <!-- Generator: Adobe Illustrator 30.8.0, SVG Export Plug-In . SVG Version: 2.1.4 Build 80)  -->
  <defs>
    <linearGradient id="Degradado_sin_nombre" data-name="Degradado sin nombre" x1="104.14" y1="-9.07" x2="152.53" y2="265.18" gradientUnits="userSpaceOnUse">
      <stop offset="0" stop-color="#faae42"/>
      <stop offset="1" stop-color="#ef3e31"/>
    </linearGradient>
  </defs>
  <path d="M256.1,59.1c.05-1.19.07-2.38.05-3.57-.53-31.2-26.25-56.06-57.45-55.53H56.9c-1.1,0-2.2,0-3.2.2C23.74,2.05.4,26.89.4,56.9v142.2c.06,30.27,23.77,55.21,54,56.8l144.2.1c.98.02,1.96,0,2.94-.03,31.24-1.11,55.67-27.33,54.56-58.57V59.1ZM216.1,209.5s-9.9-16.6-26.5-16.6-25.4,16.6-57.6,16.6c-71.7,0-105.6-59.9-105.6-59.9,64.6,42.5,108.7,12.4,108.7,12.4-29.1-16.9-91-97.7-91-97.7,53.9,45.9,77.2,58,77.2,58-13.9-11.5-52.9-67.7-52.9-67.7,31.2,31.6,93.2,75.7,93.2,75.7,17.6-48.8-16.9-92.3-16.9-92.3,84.4,57.4,57.1,120.7,57.1,120.7,0,0,24,27.1,14.3,50.8Z" fill="url(#Degradado_sin_nombre)"/>
</svg>