<?xml version="1.0" encoding="utf-8"?>
<!-- Generator: Adobe Illustrator 30.8.0, SVG Export Plug-In . SVG Version: 9.03 Build 0)  -->
<svg version="1.0" id="Capa_1" xmlns="http://www.w3.org/2000/svg" xmlns:xlink="http://www.w3.org/1999/xlink" x="0px" y="0px"
	 viewBox="0 0 80 80" enable-background="new 0 0 80 80" xml:space="preserve">
<path fill="#FFFFFF" d="M4.39-0.02L75-0.1c2.47,0.22,4.12,1.65,5,3.9v72.35c-0.66,1.6-1.71,2.98-3.41,3.54
	c-23.72,0.8-47.65,0.1-71.45,0.35c-2.47-0.22-4.12-1.65-5-3.9L0,4.5C0.45,2.21,2.13,0.49,4.39-0.02z M66.77,12.99
	c-5.41,5.49-10.68,11.12-16.56,16.13c-7.39,6.31-15.34,11.07-22.92,16.86c-3.59,2.74-10.12,7.98-5.18,12.64
	c4.58,4.32,11.15,3.59,16.26,0.67c10.95-6.27,22.1-30.56,27.06-42.22C65.98,15.79,66.59,14.39,66.77,12.99z M60.1,17.45
	c-0.56-0.14-0.75,0.18-1.12,0.4c-4.93,2.95-9.32,6.57-14.55,9.38c-6.35,3.42-19.35,7.22-23.84,11.49C16.6,42.51,16,50.12,19.2,54.44
	c-0.21-3.11,2.31-5.47,4.45-7.38c6.18-5.51,14.6-10.12,21.28-15.44C50.27,27.37,55.7,22.65,60.1,17.45z"/>
</svg>
